<?xml version="1.0" encoding="UTF-8"?>
<svg id="Layer_2" xmlns="http://www.w3.org/2000/svg" viewBox="0 0 166.74 204.69">
  <defs>
    <style>
      .cls-1 {
        fill: #3a2725;
      }

      .cls-2 {
        fill: #ccc747;
      }

      .cls-3 {
        fill: #e3d87d;
      }

      .cls-4 {
        fill: #5b311f;
      }

      .cls-5 {
        fill: #30201e;
      }

      .cls-6 {
        fill: #6b732b;
      }

      .cls-7 {
        fill: #46302d;
      }

      .cls-8 {
        fill: #d7ce63;
      }

      .cls-9 {
        fill: #a06653;
      }

      .cls-10 {
        fill: #485b2c;
      }

      .cls-11 {
        fill: #526b33;
      }

      .cls-12 {
        fill: #b5b545;
      }

      .cls-13 {
        fill: #868f3b;
      }
    </style>
  </defs>
  <g id="OBJECTS">
    <g>
      <g>
        <g>
          <path class="cls-10" d="M48.85,186.77l36.74-6.86s34.23,4.01,35.26,4.48c1.03.47,8.69,6.04,8.69,6.04l-30.03-2.36-13.92-4.44-36.74,3.13Z"/>
          <path class="cls-11" d="M48.85,186.77s-8.83,4.99-7.76,5.13c1.07.15,7.76,2.49,7.76,2.49l36.74-10.76-36.74,3.13Z"/>
          <polygon class="cls-6" points="48.85 194.4 78.1 196.6 90.26 190.44 48.85 194.4"/>
          <polygon class="cls-6" points="99.52 188.08 129.55 190.44 113.52 198.21 99.52 188.08"/>
          <polygon class="cls-13" points="85.59 183.64 48.85 194.4 90.26 190.44 85.59 183.64"/>
          <polygon class="cls-11" points="85.59 183.64 99.52 188.08 90.26 190.44 85.59 183.64"/>
          <polygon class="cls-11" points="78.1 196.6 113.52 198.21 99.52 188.08 90.26 190.44 78.1 196.6"/>
        </g>
        <path class="cls-10" d="M41.09,191.9s.88,7.88,1.54,8.02c.66.13,6.22-5.52,6.22-5.52l-7.76-2.49Z"/>
        <path class="cls-10" d="M113.52,198.21s2.72,4.63,3.25,4.76c.53.13,12.78-12.53,12.78-12.53l-16.03,7.77Z"/>
        <path class="cls-6" d="M42.63,199.92l6.22-5.52-6.22,5.52Z"/>
        <polygon class="cls-6" points="79.71 204.69 48.85 194.4 42.63 199.92 79.71 204.69"/>
        <polygon class="cls-11" points="79.71 204.69 116.77 202.97 113.52 198.21 79.71 204.69"/>
        <polygon class="cls-6" points="78.1 196.6 79.71 204.69 113.52 198.21 78.1 196.6"/>
        <polygon class="cls-10" points="48.85 194.4 78.1 196.6 79.71 204.69 48.85 194.4"/>
      </g>
      <g>
        <g>
          <g>
            <g>
              <polygon class="cls-5" points="79.38 150.07 53.09 133.5 42.64 104.58 44.76 102.96 56.47 131.22 80.09 144.79 79.38 150.07"/>
              <polygon class="cls-7" points="80.09 144.79 81.19 140.52 57.5 127.84 45.51 102.23 44.76 102.96 56.47 131.22 80.09 144.79"/>
              <polygon class="cls-4" points="81.19 140.52 80.94 138.46 58.53 126.08 46.54 100.76 45.51 102.23 57.5 127.84 81.19 140.52"/>
            </g>
            <polygon class="cls-4" points="46.54 100.76 36.48 92.25 35.43 93.22 45.51 102.23 46.54 100.76"/>
            <polygon class="cls-7" points="44.76 102.96 34.46 93.97 35.43 93.22 45.51 102.23 44.76 102.96"/>
            <polygon class="cls-5" points="42.64 104.58 32.81 94.87 34.46 93.97 44.76 102.96 42.64 104.58"/>
          </g>
          <path class="cls-5" d="M88.02,162.13h6.93v17.28s6.64,7.31,7.05,7.25c.41-.05,11.93,4.5,11.93,4.5h-25.92v-29.03Z"/>
          <polygon class="cls-5" points="88.02 162.13 83.4 120.97 89.42 120.97 94.95 162.13 88.02 162.13"/>
          <polygon class="cls-1" points="83.4 120.97 83.4 86.14 90.45 86.14 89.42 120.97 83.4 120.97"/>
          <polygon class="cls-7" points="88.02 191.16 77.81 194.61 84.87 162.13 79.57 120.97 80.02 86.14 83.4 86.14 83.4 120.97 88.02 162.13 88.02 191.16"/>
          <polygon class="cls-4" points="77.81 194.61 74.14 190.4 81.19 160.95 75.75 120.97 77.66 86.14 80.02 86.14 79.57 120.97 84.87 162.13 77.81 194.61"/>
          <polygon class="cls-9" points="74.14 190.4 65.61 191.16 79.5 160.8 74.14 124.79 76.49 86.14 77.66 86.14 76.63 124.5 81.19 160.95 74.14 190.4"/>
          <g>
            <polygon class="cls-5" points="90.98 132.58 129.55 103.55 144.32 82.31 142.2 80.7 126.17 101.27 90.27 127.29 90.98 132.58"/>
            <polygon class="cls-7" points="90.27 127.29 89.17 123.03 125.14 97.89 141.45 79.96 142.2 80.7 126.17 101.27 90.27 127.29"/>
            <polygon class="cls-4" points="89.17 123.03 89.42 120.97 124.11 96.13 140.43 78.49 141.45 79.96 125.14 97.89 89.17 123.03"/>
          </g>
        </g>
        <g>
          <polygon class="cls-10" points="70.28 90.19 106.81 90.19 86.92 72.45 70.28 90.19"/>
          <polygon class="cls-10" points="120.27 60.69 127.54 72.45 106.81 90.19 120.27 60.69"/>
          <polygon class="cls-11" points="120.27 60.69 128.98 35.48 133.52 38.68 127.54 72.45 120.27 60.69"/>
          <polygon class="cls-11" points="86.92 72.45 120.27 60.69 106.81 90.19 86.92 72.45"/>
          <polygon class="cls-11" points="46.54 72.45 86.92 72.45 70.28 90.19 46.54 72.45"/>
          <polygon class="cls-6" points="86.92 72.45 93.34 39.11 120.27 60.69 86.92 72.45"/>
          <polygon class="cls-6" points="63.35 35.48 86.92 72.45 46.54 72.45 63.35 35.48"/>
          <polygon class="cls-12" points="46.54 72.45 41.48 37.83 63.35 35.48 46.54 72.45"/>
          <polygon class="cls-13" points="63.35 35.48 93.34 39.11 86.92 72.45 63.35 35.48"/>
          <polygon class="cls-6" points="93.34 39.11 128.98 35.48 120.27 60.69 93.34 39.11"/>
          <polygon class="cls-6" points="133.52 38.68 111.16 8.12 93.34 8.12 133.52 38.68"/>
          <polygon class="cls-13" points="93.34 8.12 93.34 39.11 128.98 35.48 93.34 8.12"/>
          <polygon class="cls-2" points="93.34 8.12 63.35 9.83 63.35 35.48 93.34 39.11 93.34 8.12"/>
          <polygon class="cls-3" points="63.35 9.83 41.48 37.83 63.35 35.48 63.35 9.83"/>
          <polygon class="cls-3" points="63.35 9.83 90.27 0 93.34 8.12 63.35 9.83"/>
          <polygon class="cls-8" points="90.27 0 111.16 8.12 93.34 8.12 90.27 0"/>
          <polygon class="cls-12" points="93.34 8.12 63.35 35.48 93.34 39.11 93.34 8.12"/>
        </g>
        <g>
          <polygon class="cls-10" points="32.57 109.53 48.24 96.08 33.18 95.8 32.57 109.53"/>
          <polygon class="cls-10" points="43.15 78.47 50.59 80.84 48.24 96.08 43.15 78.47"/>
          <polygon class="cls-11" points="43.15 78.47 37.59 64.45 40.72 64.15 50.59 80.84 43.15 78.47"/>
          <polygon class="cls-11" points="33.18 95.8 43.15 78.47 48.24 96.08 33.18 95.8"/>
          <polygon class="cls-11" points="15.86 110.67 33.18 95.8 32.57 109.53 15.86 110.67"/>
          <polygon class="cls-6" points="33.18 95.8 23.65 79.13 43.15 78.47 33.18 95.8"/>
          <polygon class="cls-6" points="9.45 88.62 33.18 95.8 15.86 110.67 9.45 88.62"/>
          <polygon class="cls-12" points="15.86 110.67 .93 97.69 9.45 88.62 15.86 110.67"/>
          <polygon class="cls-13" points="9.45 88.62 23.65 79.13 33.18 95.8 9.45 88.62"/>
          <polygon class="cls-6" points="23.65 79.13 37.59 64.45 43.15 78.47 23.65 79.13"/>
          <polygon class="cls-6" points="40.72 64.15 19.87 59.28 12.23 65.84 40.72 64.15"/>
          <polygon class="cls-13" points="12.23 65.84 23.65 79.13 37.59 64.45 12.23 65.84"/>
          <polygon class="cls-2" points="12.23 65.84 0 77.63 9.45 88.62 23.65 79.13 12.23 65.84"/>
          <polygon class="cls-3" points="0 77.63 .93 97.69 9.45 88.62 0 77.63"/>
          <polygon class="cls-3" points="0 77.63 7.92 63.49 12.23 65.84 0 77.63"/>
          <polygon class="cls-8" points="7.92 63.49 19.87 59.28 12.23 65.84 7.92 63.49"/>
          <polygon class="cls-12" points="12.23 65.84 9.45 88.62 23.65 79.13 12.23 65.84"/>
        </g>
        <g>
          <polygon class="cls-10" points="132.15 79.69 140.08 91.13 141.32 81.05 132.15 79.69"/>
          <polygon class="cls-10" points="152.24 88.95 150.13 93.78 140.08 91.13 152.24 88.95"/>
          <polygon class="cls-11" points="152.24 88.95 162.03 86.2 162.01 88.32 150.13 93.78 152.24 88.95"/>
          <polygon class="cls-11" points="141.32 81.05 152.24 88.95 140.08 91.13 141.32 81.05"/>
          <polygon class="cls-11" points="132.56 68.4 141.32 81.05 132.15 79.69 132.56 68.4"/>
          <polygon class="cls-6" points="141.32 81.05 153.16 75.83 152.24 88.95 141.32 81.05"/>
          <polygon class="cls-6" points="147.79 65.64 141.32 81.05 132.56 68.4 147.79 65.64"/>
          <polygon class="cls-12" points="132.56 68.4 142.31 59.3 147.79 65.64 132.56 68.4"/>
          <polygon class="cls-13" points="147.79 65.64 153.16 75.83 141.32 81.05 147.79 65.64"/>
          <polygon class="cls-6" points="153.16 75.83 162.03 86.2 152.24 88.95 153.16 75.83"/>
          <polygon class="cls-6" points="162.01 88.32 166.74 74.69 162.87 69.1 162.01 88.32"/>
          <polygon class="cls-13" points="162.87 69.1 153.16 75.83 162.03 86.2 162.87 69.1"/>
          <polygon class="cls-2" points="162.87 69.1 155.82 60.08 147.79 65.64 153.16 75.83 162.87 69.1"/>
          <polygon class="cls-3" points="155.82 60.08 142.31 59.3 147.79 65.64 155.82 60.08"/>
          <polygon class="cls-3" points="155.82 60.08 164.75 66.38 162.87 69.1 155.82 60.08"/>
          <polygon class="cls-8" points="164.75 66.38 166.74 74.69 162.87 69.1 164.75 66.38"/>
          <polygon class="cls-12" points="162.87 69.1 147.79 65.64 153.16 75.83 162.87 69.1"/>
        </g>
        <g>
          <polygon class="cls-10" points="102.98 107.97 110.91 119.42 112.15 109.34 102.98 107.97"/>
          <polygon class="cls-10" points="123.07 117.24 120.96 122.06 110.91 119.42 123.07 117.24"/>
          <polygon class="cls-11" points="123.07 117.24 132.86 114.49 132.84 116.61 120.96 122.06 123.07 117.24"/>
          <polygon class="cls-11" points="112.15 109.34 123.07 117.24 110.91 119.42 112.15 109.34"/>
          <polygon class="cls-11" points="103.39 96.68 112.15 109.34 102.98 107.97 103.39 96.68"/>
          <polygon class="cls-6" points="112.15 109.34 123.99 104.11 123.07 117.24 112.15 109.34"/>
          <polygon class="cls-6" points="118.62 93.93 112.15 109.34 103.39 96.68 118.62 93.93"/>
          <polygon class="cls-12" points="103.39 96.68 113.14 87.59 118.62 93.93 103.39 96.68"/>
          <polygon class="cls-13" points="118.62 93.93 123.99 104.11 112.15 109.34 118.62 93.93"/>
          <polygon class="cls-6" points="123.99 104.11 132.86 114.49 123.07 117.24 123.99 104.11"/>
          <polygon class="cls-6" points="132.84 116.61 137.56 102.97 133.7 97.39 132.84 116.61"/>
          <polygon class="cls-13" points="133.7 97.39 123.99 104.11 132.86 114.49 133.7 97.39"/>
          <polygon class="cls-2" points="133.7 97.39 126.65 88.36 118.62 93.93 123.99 104.11 133.7 97.39"/>
          <polygon class="cls-3" points="126.65 88.36 113.14 87.59 118.62 93.93 126.65 88.36"/>
          <polygon class="cls-3" points="126.65 88.36 135.58 94.66 133.7 97.39 126.65 88.36"/>
          <polygon class="cls-8" points="135.58 94.66 137.56 102.97 133.7 97.39 135.58 94.66"/>
          <polygon class="cls-12" points="133.7 97.39 118.62 93.93 123.99 104.11 133.7 97.39"/>
        </g>
      </g>
    </g>
  </g>
</svg>